<svg width="53" height="11" viewBox="0 0 53 11" fill="none" xmlns="http://www.w3.org/2000/svg">
<path d="M6.612 10H0.576V8.428L4.476 3.1H0.696V1.624H6.492V3.196L2.592 8.524H6.612V10ZM11.3233 10.144C10.2833 10.144 9.49531 9.856 8.95931 9.28C8.42331 8.704 8.15531 7.92 8.15531 6.928C8.15531 6.424 8.22331 5.972 8.35931 5.572C8.50331 5.164 8.70331 4.82 8.95931 4.54C9.22331 4.252 9.53931 4.036 9.90731 3.892C10.2833 3.74 10.7033 3.664 11.1673 3.664C11.6313 3.664 12.0473 3.74 12.4153 3.892C12.7833 4.036 13.0953 4.244 13.3513 4.516C13.6073 4.788 13.8033 5.12 13.9393 5.512C14.0833 5.896 14.1553 6.328 14.1553 6.808V7.336H9.91931V7.444C9.91931 7.844 10.0433 8.168 10.2913 8.416C10.5393 8.656 10.9033 8.776 11.3833 8.776C11.7513 8.776 12.0673 8.708 12.3313 8.572C12.5953 8.428 12.8233 8.24 13.0153 8.008L13.9753 9.052C13.7353 9.348 13.3993 9.604 12.9673 9.82C12.5353 10.036 11.9873 10.144 11.3233 10.144ZM11.1793 4.936C10.7953 4.936 10.4873 5.056 10.2553 5.296C10.0313 5.528 9.91931 5.844 9.91931 6.244V6.34H12.4153V6.244C12.4153 5.836 12.3033 5.516 12.0793 5.284C11.8633 5.052 11.5633 4.936 11.1793 4.936ZM19.1906 10C18.5506 10 18.0746 9.832 17.7626 9.496C17.4506 9.16 17.2946 8.732 17.2946 8.212V5.188H15.6146V3.808H16.7066C16.9706 3.808 17.1586 3.756 17.2706 3.652C17.3826 3.548 17.4386 3.356 17.4386 3.076V1.624H19.0706V3.808H21.4826V5.188H19.0706V8.62H21.4826V10H19.1906ZM23.5179 8.62H25.3419V5.188H23.3979V3.808H25.3419V2.908C25.3419 2.38 25.4939 1.952 25.7979 1.624C26.1099 1.288 26.5899 1.12 27.2379 1.12H29.3379V2.5H27.1179V3.808H29.3379V5.188H27.1179V8.62H29.0619V10H23.5179V8.62ZM31.0373 8.62H32.9333V2.5H31.0373V1.12H34.7093V8.62H36.6053V10H31.0373V8.62ZM41.7606 3.016C41.3606 3.016 41.0806 2.936 40.9206 2.776C40.7686 2.608 40.6926 2.408 40.6926 2.176V1.828C40.6926 1.588 40.7686 1.388 40.9206 1.228C41.0806 1.068 41.3606 0.987999 41.7606 0.987999C42.1606 0.987999 42.4366 1.068 42.5886 1.228C42.7486 1.388 42.8286 1.588 42.8286 1.828V2.176C42.8286 2.408 42.7486 2.608 42.5886 2.776C42.4366 2.936 42.1606 3.016 41.7606 3.016ZM38.9046 8.62H40.8726V5.188H38.9046V3.808H42.6486V8.62H44.4726V10H38.9046V8.62ZM45.6079 10L47.9239 6.856L45.7639 3.808H47.7919L48.4519 4.804L48.9559 5.608H49.0519L49.5679 4.804L50.2399 3.808H52.0999L49.9399 6.76L52.2559 10H50.2159L49.4359 8.836L48.8959 8.008H48.7999L48.2719 8.836L47.4799 10H45.6079Z" fill="#FF0000"/>
</svg>
